<svg xmlns="http://www.w3.org/2000/svg" width="23.566" height="25.039" viewBox="0 0 23.566 25.039"><path d="M-1249.553-557.274v-1.472h-1.473v-1.473h-1.473v-1.473h-1.473v-1.473h-1.473v-1.472h1.473v-2.946h1.473V-572h-1.473v-2.946h-1.473v-1.473h-1.473v-1.472h-2.946v-1.473h-4.418v1.473h-2.945v1.472h-1.473v1.473h-1.473V-572h-1.473v4.418h1.473v2.946h1.473v1.472h1.473v1.473h2.945v1.473h4.418v-1.473h2.946v1.473h1.473v1.473h1.473v1.472h1.473v1.473h1.473v1.473h2.946v-2.946Zm-11.783-5.891h-2.946v-1.472h-2.945v-2.946h-1.473V-572h1.473v-2.946h2.945v-1.473h4.418v1.473h2.946V-572h1.473v4.418h-1.473v2.946h-2.946v1.472Z" transform="translate(1271.646 579.367)"/></svg>